<svg xmlns="http://www.w3.org/2000/svg" xmlns:xlink="http://www.w3.org/1999/xlink" viewBox="0 0 97.05 97.05"><defs><style>.cls-1{fill:url(#linear-gradient);}.cls-2{fill:url(#linear-gradient-2);}.cls-3{fill:url(#linear-gradient-3);}</style><linearGradient id="linear-gradient" x1="74.54" y1="48.53" x2="20.49" y2="48.53" gradientUnits="userSpaceOnUse"><stop offset="0" stop-color="#f47920"/><stop offset="0.02" stop-color="#f47720"/><stop offset="0.37" stop-color="#f26122"/><stop offset="0.71" stop-color="#f05324"/><stop offset="1" stop-color="#f04e24"/></linearGradient><linearGradient id="linear-gradient-2" x1="80.59" y1="48.53" x2="95.92" y2="48.53" gradientTransform="matrix(0.76, 0.65, -0.65, 0.76, 52.3, -44.83)" gradientUnits="userSpaceOnUse"><stop offset="0" stop-color="#32c3e3"/><stop offset="0.08" stop-color="#30bce1"/><stop offset="0.41" stop-color="#2aa6d8"/><stop offset="0.73" stop-color="#2698d3"/><stop offset="1" stop-color="#2593d1"/></linearGradient><linearGradient id="linear-gradient-3" x1="-0.08" y1="48.52" x2="16.06" y2="48.52" gradientTransform="translate(24.21 1.02) rotate(28.3)" xlink:href="#linear-gradient-2"/></defs><title>Asset 1</title><g id="Layer_2" data-name="Layer 2"><g id="Layer_1-2" data-name="Layer 1"><path class="cls-1" d="M77.57,65.46a2.68,2.68,0,0,1-.07-.27,2.76,2.76,0,0,0-.08-.27,4.68,4.68,0,0,0-.17-.53.84.84,0,0,0,0-.17,2.88,2.88,0,0,0-.13-.31s0,0,0-.08S77,63.7,77,63.64l-.21-.45-.14-.26a1.57,1.57,0,0,0-.12-.21c-.07-.14-.17-.28-.25-.41l-.14-.21c-.18-.26-.37-.52-.57-.77a8.34,8.34,0,0,0-.81-.87c-.07-.06-.13-.13-.2-.18s-.37-.32-.56-.47l-.16-.13c-.11-.09-.23-.17-.36-.26l-.38-.24c-.25-.16-.51-.3-.78-.44a3.86,3.86,0,0,0-.41-.2,9.93,9.93,0,0,0-3.69-.87H67.6l-.43,0-.37,0-.5.06-.16,0-.09,0-.09,0-.2,0h-.07l-.16,0-.13,0L65,58l-.16,0-.09,0-.23.07-.17.06-.08,0h-.08l-.25,0a6.44,6.44,0,0,1-3.79-1.86L40.64,36.91a6.54,6.54,0,0,1-1.84-3.68h0v0c0-.12,0-.24,0-.36h0l.08-.2.15-.49s0,0,0-.06a.08.08,0,0,0,0,0l.06-.2s0,0,0,0a2,2,0,0,0,.06-.26c0-.19.08-.38.11-.56s.06-.37.08-.56a5.48,5.48,0,0,0,0-.57v-.43h0a.66.66,0,0,0,0-.14h0c0-.19,0-.37,0-.56h0s0,0,0,0a.81.81,0,0,0,0-.16,1.09,1.09,0,0,0,0-.26v0c0-.05,0-.12,0-.17l-.06-.4a2,2,0,0,0,0-.24.57.57,0,0,0,0-.18,1.16,1.16,0,0,0,0-.18l0-.14c0-.07,0-.15-.06-.23v-.06a1.67,1.67,0,0,1,0-.18l-.09-.28c0-.05,0-.1,0-.14a6.52,6.52,0,0,1,6.43-6.42,1.35,1.35,0,0,0,.24.08l.07,0,.32.09.22.06.36.08.49.09.51.06.43,0h1.2a1.66,1.66,0,0,0,.32,0h.21l.13,0h.08l.32,0,.3,0,.65-.16a6.17,6.17,0,0,0,.65-.19,6.51,6.51,0,0,1,6.41,6.42,10.05,10.05,0,0,0-.52,2.64c0,.21,0,.4,0,.61A10.09,10.09,0,1,0,67.74,19.22c-.21,0-.41,0-.61,0a9.9,9.9,0,0,0-2.62.51,6.51,6.51,0,0,1-6.43-6.42h0a2.8,2.8,0,0,0,.09-.31.75.75,0,0,0,0-.16s0-.1.05-.16,0,0,0-.07l.06-.25c0-.22.09-.44.13-.66l0-.23,0-.2a.77.77,0,0,1,0-.15V11a2.11,2.11,0,0,0,0-.25c0-.06,0-.12,0-.17a.76.76,0,0,0,0-.15v-.12a2.09,2.09,0,0,0,0-.25c0-.35,0-.7,0-1h0c0-.33-.1-.66-.16-1h0c0-.12,0-.24-.08-.36l0-.13-.06-.23a2.25,2.25,0,0,1-.08-.24l0-.12,0-.08a.25.25,0,0,1,0-.07l0-.06-.18-.48-.15-.34a1.22,1.22,0,0,1-.07-.17,1.19,1.19,0,0,0-.08-.16c-.11-.22-.22-.43-.35-.64L57,4.69l-.23-.35,0,0-.13-.18L56.54,4h0l0,0h0l0,0-.36-.43-.35-.39c-.12-.13-.25-.26-.38-.38L55,2.38l-.08-.07c-.25-.2-.51-.39-.77-.58a0,0,0,0,1,0,0c-.27-.18-.55-.34-.83-.5l-.07,0Q53,1.06,52.78,1L52.29.73,51.78.54,51.34.4h-.1A1.17,1.17,0,0,0,51,.31L50.72.25,50.2.14A10.39,10.39,0,0,0,48.52,0a9.22,9.22,0,0,0-1.29.09l-.39.05h-.06l-.08,0-.31.06L46,.33a1.4,1.4,0,0,0-.29.09L45.4.5l-.58.2L44.26,1a8.49,8.49,0,0,0-1.07.58l-.26.16-.25.17c-.17.12-.33.24-.48.37a9.82,9.82,0,0,0-.9.81c-.13.13-.25.27-.37.4l0,.07a4.15,4.15,0,0,0-.27.32c-.16.2-.31.41-.46.62l-.26.41-.18.32a3.24,3.24,0,0,0-.17.32,5.65,5.65,0,0,0-.31.66c-.07.15-.13.3-.19.46s-.11.31-.15.47-.1.32-.14.48-.08.32-.11.48a9.8,9.8,0,0,0-.21,2c0,.17,0,.35,0,.52v.09l0,.34a.19.19,0,0,0,0,.08c0,.17,0,.34.06.51a1.55,1.55,0,0,0,0,.21.22.22,0,0,0,0,.08.29.29,0,0,0,0,.09,1.3,1.3,0,0,0,0,.21c0,.1.05.2.07.29h0c0,.12.06.23.1.35l0,.14,0,.08a1.55,1.55,0,0,1,.07.23,6.51,6.51,0,0,1-6.42,6.44h0l-.24-.08,0,0-.07,0-.13,0-.23-.06-.07,0-.12,0h-.05l-.14,0-.18,0h0l-.3-.06-.68-.08-.21,0h-.22l-.52,0a10.09,10.09,0,0,0-7.12,17.23c.11.11.22.22.34.32l.32.28.25.2.12.1.2.14c.08.07.17.12.25.18l.36.23.32.19.39.21.37.17a.2.2,0,0,0,.09.05,2.87,2.87,0,0,0,.37.15,3.83,3.83,0,0,0,.43.17l.44.14h0l.44.12.46.1.47.08c.31,0,.63.08,1,.1h.69a3,3,0,0,0,.43,0,5.09,5.09,0,0,0,.55,0h.08l.52-.07.55-.12.25-.05h0L32,39l.16,0,.53-.16.18-.07h0l.37,0h0a6.53,6.53,0,0,1,3.67,1.83L56.41,60.15A6.58,6.58,0,0,1,58.27,64c0,.08,0,.17,0,.25h0a.14.14,0,0,0,0,.06l0,.06a2.41,2.41,0,0,0-.08.25c0,.09-.06.17-.08.25a2.33,2.33,0,0,0-.07.25,2.33,2.33,0,0,0-.07.25c0,.1,0,.18-.06.27a2,2,0,0,0-.05.26,2.33,2.33,0,0,0,0,.28c0,.11,0,.23,0,.35l0,.13v0a1.94,1.94,0,0,0,0,.24c0,.18,0,.36,0,.54a1.08,1.08,0,0,0,0,.18h0v.14c0,.14,0,.28,0,.42s0,.12,0,.19A10.15,10.15,0,0,0,58.19,71v0a6.51,6.51,0,0,1-6.41,6.4h0l-.19-.06s0,0,0,0l-.08,0,0,0-.08,0-.09,0-.12,0-.11,0,0,0h-.08a.12.12,0,0,1-.08,0h-.12a3.28,3.28,0,0,0-.41-.08l-.12,0L49.78,77h0l-.1,0-.19,0h0l-.34,0h0a3.69,3.69,0,0,0-.47,0h-.11l-.51,0h-.15l-.5,0L47,77h0l-.2,0-.17,0h-.12a.27.27,0,0,0-.12,0h-.09a.32.32,0,0,0-.09,0,3.9,3.9,0,0,0-.46.12h-.06l-.3.1-.07,0a6.48,6.48,0,0,1-4.54-1.9A6.55,6.55,0,0,1,38.86,71c.06-.18.12-.37.17-.56a1,1,0,0,0,0-.18,2.71,2.71,0,0,0,.09-.41h0a2.44,2.44,0,0,0,.06-.26h0l0-.22a.09.09,0,0,0,0,0c0-.12,0-.25,0-.38a4.89,4.89,0,0,0,0-.55c0-.21,0-.4,0-.61A10.09,10.09,0,1,0,29.3,77.83l.6,0a2.6,2.6,0,0,0,.4,0h.07l.37,0,.15,0,.42-.08c.2,0,.41-.08.61-.14l.32-.09.32-.1h0A6.51,6.51,0,0,1,39,83.71h0v.05a1.42,1.42,0,0,0-.05.16.36.36,0,0,1,0,.11h0a.2.2,0,0,0,0,.11,1,1,0,0,1-.05.16.53.53,0,0,1,0,.12l0,.11,0,.14a.31.31,0,0,0,0,.13,1.42,1.42,0,0,0,0,.2,2.33,2.33,0,0,0-.05.28s0,0,0,0,0,.22,0,.33,0,.09,0,.13a1.5,1.5,0,0,0,0,.22.91.91,0,0,0,0,.17s0,.11,0,.17v0c0,.19,0,.39,0,.58s0,.29,0,.44,0,.2,0,.3,0,.2,0,.3a1.66,1.66,0,0,1,0,.22c0,.09,0,.17,0,.25a.77.77,0,0,0,0,.15.43.43,0,0,1,0,0l0,.1c0,.18.07.35.11.53s0,0,0,.08a3.17,3.17,0,0,0,.12.44c0,.1.06.21.1.31a.19.19,0,0,0,0,.07l0,.08a2.67,2.67,0,0,0,.09.26s0,.08,0,.13l0,.12.15.33,0,.07.07.14c.07.15.14.3.22.44s.33.56.5.82c0,0,0,0,0,0a3.28,3.28,0,0,0,.27.38h0l.06.07.24.31.13.14,0,0c.06.07.11.14.17.2h0l.33.34.1.1.11.09a1.31,1.31,0,0,0,.21.2,3.73,3.73,0,0,0,.3.26l.08.07h0l.36.28.15.1,0,0c.2.14.41.28.63.41a5.46,5.46,0,0,0,.48.27h0l.28.14.45.2.45.19h0l.44.14.48.14.49.11.45.09.59.07L48,97H48l.49,0h0A3.93,3.93,0,0,0,49,97h.07l.35,0h.11l.54-.08.26,0,.11,0,.51-.12H51l.1,0,.43-.13h0l.18-.06.32-.11h0l.18-.07.09,0,.29-.13.47-.23.09,0,.12-.06.2-.12.19-.11h0l.49-.33.36-.26.16-.13a4.19,4.19,0,0,0,.33-.26l.11-.1c.15-.13.29-.27.43-.41l.26-.26.14-.16.25-.3a7.26,7.26,0,0,0,.59-.78l.18-.28a1.07,1.07,0,0,0,.13-.21l.18-.3a.54.54,0,0,0,0-.11c.07-.12.12-.24.19-.36a10,10,0,0,0,1-4.36c0-.21,0-.41,0-.61a5.51,5.51,0,0,0-.06-.57,1.45,1.45,0,0,0,0-.28.28.28,0,0,0,0-.09l0-.19c0-.08,0-.17-.05-.26a.09.09,0,0,0,0,0c0-.07,0-.15,0-.22a.11.11,0,0,0,0,0,1.6,1.6,0,0,0-.05-.21,2.13,2.13,0,0,0-.08-.27.13.13,0,0,0,0-.06.88.88,0,0,0-.05-.15,1.82,1.82,0,0,0-.07-.25A6.49,6.49,0,0,1,64.5,77.3h0c.34.11.68.2,1,.28l.09,0,.18,0h0l.12,0H66l.16,0,.3,0h.08c.12,0,.25,0,.38,0l.19,0H68s0,0,0,0a0,0,0,0,0,0,0h.54a.13.13,0,0,0,.09,0s0,0,0,0a1.53,1.53,0,0,0,.3,0l.14,0,.37-.06.11,0,.12,0,.13,0a3.9,3.9,0,0,0,.46-.12h.06l.19-.06.08,0,.17,0,.11,0,.61-.23.24-.1.65-.32.08,0s0,0,0,0l.32-.19.2-.12c.2-.13.39-.25.58-.39l.15-.12,0,0,.16-.13.13-.09,0,0,.16-.13a1.37,1.37,0,0,1,.18-.16l.17-.16a10.47,10.47,0,0,0,.78-.85s0,0,0,0l.06-.07.11-.15.15-.18.07-.1s0-.07.07-.09l.12-.19.24-.36.14-.25a1.59,1.59,0,0,0,.13-.22c0-.08.09-.16.13-.24s.15-.31.22-.47.14-.32.2-.49.12-.32.17-.49h0c0-.11.08-.22.11-.33s0-.08,0-.11l.11-.41c0-.05,0-.1,0-.16a1.43,1.43,0,0,1,0-.22l.06-.37c0-.24.07-.49.09-.74a.49.49,0,0,0,0-.12c0-.22,0-.44,0-.65A9.85,9.85,0,0,0,77.68,66C77.65,65.83,77.61,65.64,77.57,65.46Z"/><circle class="cls-2" cx="86.96" cy="48.53" r="10.09" transform="translate(-10.69 68.05) rotate(-40.47)"/><circle class="cls-3" cx="10.09" cy="48.52" r="10.09" transform="translate(-21.8 10.58) rotate(-28.3)"/></g></g></svg>